<svg id="Capa_1" data-name="Capa 1" xmlns="http://www.w3.org/2000/svg" viewBox="0 0 35 35"><defs><style>.cls-1{fill:#1d262d;}</style></defs><path class="cls-1" d="M30.44.44H4.56A3.13,3.13,0,0,0,1.43,3.57V31.43a3.13,3.13,0,0,0,3.13,3.13H30.44a3.13,3.13,0,0,0,3.13-3.13V3.57A3.13,3.13,0,0,0,30.44.44ZM23.88,14a1.33,1.33,0,0,1,1.35,1.19V33.06h-7V14Zm-7.13,19h-7V15.39A1.34,1.34,0,0,1,11,14.05h5.8Zm15.32-1.63a1.63,1.63,0,0,1-1.63,1.63h-3.7V15.12a2.86,2.86,0,0,0-2.85-2.58h-13a2.84,2.84,0,0,0-2.58,2.84V33.06H4.56a1.63,1.63,0,0,1-1.63-1.63V3.57A1.63,1.63,0,0,1,4.56,1.94H30.44a1.63,1.63,0,0,1,1.63,1.63Z"/><path class="cls-1" d="M13,5.62l-.26-.26a1.47,1.47,0,0,0-1.11-.28,1.42,1.42,0,0,0-1,.58L8.41,8.6a.75.75,0,1,0,1.2.9l2.14-3L14,9.5a.77.77,0,0,0,.6.3.76.76,0,0,0,.45-.15A.75.75,0,0,0,15.2,8.6Z"/><path class="cls-1" d="M25.39,5.36l-2.14,3L21,5.36a.75.75,0,1,0-1.2.9l2.24,3,.26.26a1.49,1.49,0,0,0,.89.3,1.47,1.47,0,0,0,1.19-.6l2.21-2.94a.75.75,0,0,0-1.2-.9Z"/></svg>