<svg id="Capa_1" data-name="Capa 1" xmlns="http://www.w3.org/2000/svg" viewBox="0 0 35 35">
    <defs>
        <style>.cls-1{fill:#1d262d;}</style>
    </defs>
    <path class="cls-1"
        d="M31.75,18.54H28.24V3A2.76,2.76,0,0,0,25.49.28h-16A2.76,2.76,0,0,0,6.76,3V18.54H3.25A2.75,2.75,0,0,0,.5,21.29V32a2.75,2.75,0,0,0,2.75,2.75h28.5A2.75,2.75,0,0,0,34.5,32V21.29A2.75,2.75,0,0,0,31.75,18.54ZM8.26,3A1.25,1.25,0,0,1,9.51,1.78h16A1.25,1.25,0,0,1,26.74,3V18.54H8.26Zm5,30.19h-5V20h5a.14.14,0,0,0,0,.07ZM14.73,20h5.4s0,0,0,.07V33.22H14.74V20.11S14.73,20.06,14.73,20Zm6.87,0h5.14V33.22H21.62V20.11A.14.14,0,0,0,21.6,20ZM2,32V21.29A1.25,1.25,0,0,1,3.25,20H6.76V33.22H3.25A1.25,1.25,0,0,1,2,32Zm31,0a1.25,1.25,0,0,1-1.25,1.25H28.24V20h3.51A1.25,1.25,0,0,1,33,21.29Z" />
</svg>