<svg id="Capa_1" data-name="Capa 1" xmlns="http://www.w3.org/2000/svg" viewBox="0 0 35 35"><defs><style>.cls-1{fill:#1d262d;}</style></defs><path class="cls-1" d="M33.79,1.6,33.54.76l-.79.37c-4.92,2.32-9.58,2.47-15,2.65L17,3.8A12.6,12.6,0,0,0,5.11,12.36,13.54,13.54,0,0,0,5.76,22.6L.37,27.2l-.15.14a.75.75,0,0,0,0,1.06.73.73,0,0,0,.54.23.73.73,0,0,0,.52-.21L6.54,23.9a12.25,12.25,0,0,0,9.52,5.28l1,0a16.68,16.68,0,0,0,13.48-6.41C34.77,17.35,36,9.22,33.79,1.6ZM29.31,21.87a15.16,15.16,0,0,1-13.18,5.81,10.62,10.62,0,0,1-8.45-4.76l1-.88a47.35,47.35,0,0,1,13.52-7.26.76.76,0,0,0,.47-1,.74.74,0,0,0-.95-.46,48.86,48.86,0,0,0-14,7.52l-.84.71a12.05,12.05,0,0,1-.41-8.73A11.15,11.15,0,0,1,17.05,5.3l.76,0c5.06-.17,9.86-.32,14.77-2.43C34.37,9.77,33.14,17,29.31,21.87Z"/></svg>