<svg id="Capa_1" data-name="Capa 1" xmlns="http://www.w3.org/2000/svg" viewBox="0 0 35 35"><defs><style>.cls-1{fill:#1d262d;}</style></defs><path class="cls-1" d="M6.76,34.44A4,4,0,0,1,4,33.3L1.69,31.05a4,4,0,0,1,0-5.57L12.55,14.61a10.53,10.53,0,0,1-.36-2.08A11.12,11.12,0,0,1,26.59,1.06,1.71,1.71,0,0,1,27.75,2.3,1.78,1.78,0,0,1,27.29,4L22.16,9.1a.26.26,0,0,0,0,.35l3.38,3.38a.25.25,0,0,0,.36,0l5.15-5.15a1.71,1.71,0,0,1,1.65-.46A1.75,1.75,0,0,1,34,8.43a11.23,11.23,0,0,1,.39,4.75h0a11.13,11.13,0,0,1-13.95,9.23L9.54,33.3A4,4,0,0,1,6.76,34.44ZM23.27,2.06a11.2,11.2,0,0,0-1.3.08,9.8,9.8,0,0,0-8.28,10.28,8.87,8.87,0,0,0,.42,2.17l.15.44L2.75,26.54a2.45,2.45,0,0,0,0,3.44L5,32.23a2.44,2.44,0,0,0,3.45,0L20,20.73l.44.13a9.63,9.63,0,0,0,12.12-12,.26.26,0,0,0-.2-.19.22.22,0,0,0-.23.06L27,13.89a1.74,1.74,0,0,1-2.48,0L21.1,10.51A1.75,1.75,0,0,1,21.1,8l5.12-5.13a.25.25,0,0,0,.07-.25.21.21,0,0,0-.14-.17A9.71,9.71,0,0,0,23.27,2.06Zm10.34,11h0Z"/></svg>