<svg id="Capa_1" data-name="Capa 1" xmlns="http://www.w3.org/2000/svg" viewBox="0 0 35 35"><defs><style>.cls-1{fill:#1d262d;}</style></defs><path class="cls-1" d="M31.43,32.6a15.77,15.77,0,0,1-17.31-6A16.14,16.14,0,0,1,12.17,23H21.5a.75.75,0,0,0,0-1.5H11.7a15.86,15.86,0,0,1-.42-5.57H21.5a.75.75,0,0,0,0-1.5h-10a15.75,15.75,0,0,1,19.93-12A.75.75,0,0,0,31.86,1,17.23,17.23,0,0,0,10,14.39H3.36a.75.75,0,1,0,0,1.5H9.77a17.39,17.39,0,0,0,.38,5.57H3.36a.75.75,0,1,0,0,1.5h7.22A17.24,17.24,0,0,0,26.94,34.75,17,17,0,0,0,31.86,34a.75.75,0,0,0-.43-1.43Z"/></svg>