<svg id="Capa_1" data-name="Capa 1" xmlns="http://www.w3.org/2000/svg" viewBox="0 0 35 35"><defs><style>.cls-1{fill:#1d262d;}</style></defs><path class="cls-1" d="M30.26.25H4.74A3.39,3.39,0,0,0,1.35,3.64V31.36a3.39,3.39,0,0,0,3.39,3.39H30.26a3.39,3.39,0,0,0,3.39-3.39V3.64A3.39,3.39,0,0,0,30.26.25ZM2.85,12.75h29.3v5.1H2.85Zm4.4-3.39V8A1.89,1.89,0,0,1,9.14,6.15h3.52A1.89,1.89,0,0,1,14.55,8V9.36a1.89,1.89,0,0,1-1.89,1.89H9.14A1.89,1.89,0,0,1,7.25,9.36Zm13.2,0V8a1.89,1.89,0,0,1,1.89-1.89h3.52A1.89,1.89,0,0,1,27.75,8V9.36a1.89,1.89,0,0,1-1.89,1.89H22.34A1.89,1.89,0,0,1,20.45,9.36ZM4.74,1.75H30.26a1.89,1.89,0,0,1,1.89,1.89v7.61H28.67a3.33,3.33,0,0,0,.58-1.89V8a3.39,3.39,0,0,0-3.39-3.39H22.34A3.39,3.39,0,0,0,19,8V9.36a3.33,3.33,0,0,0,.58,1.89H15.47a3.33,3.33,0,0,0,.58-1.89V8a3.39,3.39,0,0,0-3.39-3.39H9.14A3.39,3.39,0,0,0,5.75,8V9.36a3.33,3.33,0,0,0,.58,1.89H2.85V3.64A1.89,1.89,0,0,1,4.74,1.75Zm25.52,31.5H4.74a1.89,1.89,0,0,1-1.89-1.89v-12h29.3v12A1.89,1.89,0,0,1,30.26,33.25Z"/></svg>