<svg id="Capa_1" data-name="Capa 1" xmlns="http://www.w3.org/2000/svg" viewBox="0 0 35 35">
    <defs>
        <style>.cls-1{fill:#1d262d;}</style>
    </defs>
    <path class="cls-1"
        d="M32,21.57A14.06,14.06,0,0,0,18.25,32.4V17.93a5,5,0,1,0,6.69-7.51.45.45,0,0,1-.17-.36.48.48,0,0,1,.17-.37,5,5,0,1,0-7.08-7.07.49.49,0,0,1-.73,0,5,5,0,1,0-7.07,7.07.48.48,0,0,1,.17.37.47.47,0,0,1-.17.37,5,5,0,1,0,6.69,7.5V32.4A14.06,14.06,0,0,0,3,21.57H1.13l0,.76A12.26,12.26,0,0,0,13.32,34.21h3.76v-.1a.73.73,0,0,0,.86,0v.1h3.76A12.25,12.25,0,0,0,33.85,22.33l0-.76ZM13.32,32.71A10.75,10.75,0,0,1,2.7,23.07H3a12.56,12.56,0,0,1,12.26,9.64ZM17.5,15.83a2,2,0,0,0-1.53.73,3.53,3.53,0,1,1-5-5,1.94,1.94,0,0,0,.74-1.54A2,2,0,0,0,11,8.53a3.53,3.53,0,1,1,5-5,2,2,0,0,0,3.07,0,3.53,3.53,0,1,1,5,5,1.94,1.94,0,0,0-.74,1.54A2,2,0,0,0,24,11.59a3.53,3.53,0,1,1-5,5A1.94,1.94,0,0,0,17.5,15.83Zm4.18,16.88h-2A12.56,12.56,0,0,1,32,23.07h.32A10.74,10.74,0,0,1,21.68,32.71Z" />
    <path class="cls-1"
        d="M20.48,10.06a3,3,0,1,0-3,3A3,3,0,0,0,20.48,10.06Zm-3,1.48A1.48,1.48,0,1,1,19,10.06,1.48,1.48,0,0,1,17.5,11.54Z" />
</svg>