<svg id="Capa_1" data-name="Capa 1" xmlns="http://www.w3.org/2000/svg" viewBox="0 0 35 35"><defs><style>.cls-1{fill:#1d262d;}</style></defs><path class="cls-1" d="M25.32,17.78a9.46,9.46,0,0,0-15.92,0l-5.11,8a5.25,5.25,0,0,0,6.53,7.64,16.35,16.35,0,0,1,13.08,0,5.33,5.33,0,0,0,2.13.45,5.25,5.25,0,0,0,4.4-8.09ZM28.86,31a3.72,3.72,0,0,1-4.36,1,17.75,17.75,0,0,0-14.33,0,3.75,3.75,0,0,1-4.62-5.48l5.11-8a8,8,0,0,1,13.4,0l5.11,8A3.73,3.73,0,0,1,28.86,31Z"/><path class="cls-1" d="M6.15,17.46a3.33,3.33,0,0,0,1.92-2.07,4.76,4.76,0,0,0-.1-3.3A4.78,4.78,0,0,0,5.84,9.58,3.43,3.43,0,0,0,3,9.33c-1.87.72-2.69,3.13-1.83,5.37h0a4.89,4.89,0,0,0,2,2.45,3.57,3.57,0,0,0,1.8.51A3.14,3.14,0,0,0,6.15,17.46ZM2.59,14.17c-.55-1.45-.11-3,1-3.44a1.86,1.86,0,0,1,1.56.17,3.29,3.29,0,0,1,1.45,1.73,3.28,3.28,0,0,1,.09,2.26,1.89,1.89,0,0,1-1,1.17A1.88,1.88,0,0,1,4,15.86,3.39,3.39,0,0,1,2.59,14.17Z"/><path class="cls-1" d="M9.57,10.51a4.41,4.41,0,0,0,2.6.9,4,4,0,0,0,1-.12A4.17,4.17,0,0,0,15.88,8.9a6,6,0,0,0,.3-4A6,6,0,0,0,14,1.6,4.21,4.21,0,0,0,10.45.81C8,1.43,6.66,4.28,7.4,7.17A6,6,0,0,0,9.57,10.51Zm1.25-8.24a2.72,2.72,0,0,1,2.3.53,4.56,4.56,0,0,1,1.61,2.5,4.47,4.47,0,0,1-.22,3,2.7,2.7,0,0,1-1.75,1.57,2.73,2.73,0,0,1-2.3-.54,4.42,4.42,0,0,1-1.6-2.5C8.32,4.72,9.21,2.68,10.82,2.27Z"/><path class="cls-1" d="M21.11,11a3.57,3.57,0,0,0,1.07.17,4.76,4.76,0,0,0,4.26-3.47A5.26,5.26,0,0,0,26.38,4,3.56,3.56,0,0,0,21,2.25a5.32,5.32,0,0,0-2.23,2.88C18,7.64,19,10.26,21.11,11ZM20.24,5.6h0a3.72,3.72,0,0,1,1.57-2.06,2.43,2.43,0,0,1,1.26-.38,1.8,1.8,0,0,1,.6.1A2.2,2.2,0,0,1,25,4.59a3.8,3.8,0,0,1,0,2.6C24.44,8.92,22.9,10,21.58,9.53S19.66,7.33,20.24,5.6Z"/><path class="cls-1" d="M32.84,9.44a3.24,3.24,0,0,0-1.92-.62,4.54,4.54,0,0,0-3.59,2c-1.43,1.93-1.28,4.47.33,5.66a3.13,3.13,0,0,0,1.91.61,4.6,4.6,0,0,0,3.6-2h0C34.6,13.17,34.45,10.63,32.84,9.44ZM32,14.21c-.92,1.24-2.48,1.71-3.41,1s-.94-2.32,0-3.56a3.14,3.14,0,0,1,2.39-1.35,1.73,1.73,0,0,1,1,.32C32.88,11.33,32.88,13,32,14.21Z"/></svg>