<svg id="Capa_1" data-name="Capa 1" xmlns="http://www.w3.org/2000/svg" viewBox="0 0 35 35"><defs><style>.cls-1{fill:#1d262d;}</style></defs><path class="cls-1" d="M34.53,8.72,26.28.47A.63.63,0,0,0,26,.31a.73.73,0,0,0-.58,0,.63.63,0,0,0-.24.16L17,8.72A.75.75,0,0,0,18,9.78l7-7V34a.75.75,0,0,0,1.5,0V2.81l7,7a.75.75,0,0,0,1.06-1.06Z"/><path class="cls-1" d="M17,25.22l-7,7V1A.75.75,0,0,0,8.5,1V32.19l-7-7A.75.75,0,0,0,.47,26.28l8.25,8.25a.63.63,0,0,0,.24.16.73.73,0,0,0,.58,0,.63.63,0,0,0,.24-.16L18,26.28A.75.75,0,0,0,17,25.22Z"/></svg>