<svg id="Capa_1" data-name="Capa 1" xmlns="http://www.w3.org/2000/svg" viewBox="0 0 35 35">
    <defs>
        <style>.cls-1{fill:#1d262d;}</style>
    </defs>
    <path class="cls-1"
        d="M20.46,25.14v-4a1.69,1.69,0,0,0-1.69-1.69H4.65A1.69,1.69,0,0,0,3,21.11v4a2.57,2.57,0,0,0,.11,5.14H3.3l-.82,3.4a.74.74,0,0,0,.55.9.55.55,0,0,0,.18,0A.75.75,0,0,0,3.94,34l.9-3.75H18.58l.9,3.75a.75.75,0,0,0,.73.57.47.47,0,0,0,.17,0,.74.74,0,0,0,.56-.9l-.82-3.4h.23a2.57,2.57,0,0,0,.11-5.14ZM4.65,20.92H18.77a.19.19,0,0,1,.19.19v4H4.46v-4A.2.2,0,0,1,4.65,20.92Zm15.7,7.86H3.07a1.08,1.08,0,0,1,0-2.15H20.35a1.08,1.08,0,0,1,0,2.15Z" />
    <path class="cls-1"
        d="M30.54,3.87a5,5,0,0,0-9.47,0,7.25,7.25,0,0,0,0,12.81,5,5,0,0,0,3.77,3.42v13.7a.75.75,0,0,0,1.5,0V20.22a4.93,4.93,0,0,0,4.2-3.43,7.25,7.25,0,0,0,0-12.92ZM29.6,15.58l-.34.15-.09.36a3.41,3.41,0,0,1-2.83,2.62V13.06l.08-.05L30.1,9.33A.75.75,0,0,0,29,8.27L26.34,11V7.34a.75.75,0,0,0-1.5,0v6.07l-2.16-2.16a.75.75,0,1,0-1.06,1.06l3.22,3.22v3.08a3.5,3.5,0,0,1-2.4-2.56l-.08-.36L22,15.54A5.76,5.76,0,0,1,22,5.12L22.36,5l.08-.36a3.47,3.47,0,0,1,3.37-2.7,3.42,3.42,0,0,1,3.36,2.66l.09.37.34.15a5.75,5.75,0,0,1,0,10.5Z" />
</svg>