<svg id="Capa_1" data-name="Capa 1" xmlns="http://www.w3.org/2000/svg" viewBox="0 0 35 35"><defs><style>.cls-1{fill:#1d262d;}</style></defs><path class="cls-1" d="M33.59,33.25H31.72V2.74A2.53,2.53,0,0,0,29.16.25H14.88a2.53,2.53,0,0,0-2.56,2.49v11.4H5.23a1.93,1.93,0,0,0-2,1.91v17.2H1.41a.75.75,0,1,0,0,1.5H33.59a.75.75,0,0,0,0-1.5ZM13.82,2.74a1,1,0,0,1,1.06-1H29.16a1,1,0,0,1,1.06,1V7.2H25.55a.75.75,0,0,0,0,1.5h4.67v5.44H25.55a.75.75,0,1,0,0,1.5h4.67V33.25H21.06V16.05a1.94,1.94,0,0,0-2-1.91H13.82Zm-9,13.31a.43.43,0,0,1,.45-.41H19.1a.44.44,0,0,1,.46.41v5H13.07a.75.75,0,1,0,0,1.5h6.49V33.25H4.78Z"/></svg>