<svg id="Capa_1" data-name="Capa 1" xmlns="http://www.w3.org/2000/svg" viewBox="0 0 100 22.63"><defs><style>.cls-1{fill:#1d262d;}.cls-2{fill:#ff6b3e;}</style></defs><path class="cls-1" d="M36.35,13.35a3.47,3.47,0,0,0,.58-2,3.58,3.58,0,0,0-1.09-2.58,3.72,3.72,0,0,0-2.62-1.07h-4.1V17.88h1.64V15l2.47,0,2,2.89h1.91l-2.17-3.26A3.66,3.66,0,0,0,36.35,13.35ZM34,13.26a2,2,0,0,1-.81.16H30.76V9.36h2.46a2,2,0,0,1,.81.16,2.13,2.13,0,0,1,.65.44,2,2,0,0,1,.44.64,1.92,1.92,0,0,1,.16.79,1.89,1.89,0,0,1-.16.79,2.13,2.13,0,0,1-.44.65A2.1,2.1,0,0,1,34,13.26Z"/><polygon class="cls-1" points="39.2 17.88 46.6 17.88 46.6 16.26 40.84 16.26 40.84 14.68 45.16 14.68 45.16 13.07 40.84 13.07 40.84 9.36 46.6 9.36 46.6 7.74 39.2 7.74 39.2 17.88"/><polygon class="cls-1" points="55.96 14.31 48.99 7.77 48.89 7.74 48.75 7.74 48.75 17.88 50.39 17.88 50.39 11.31 57.41 17.88 57.6 17.88 57.6 7.74 55.96 7.74 55.96 14.31"/><polygon class="cls-1" points="59.5 9.36 63.1 9.36 63.1 17.88 64.74 17.88 64.74 9.36 68.35 9.36 68.35 7.74 59.5 7.74 59.5 9.36"/><path class="cls-1" d="M77.32,13.52a2.65,2.65,0,0,1-.23,1.08,2.91,2.91,0,0,1-.59.87,2.85,2.85,0,0,1-.89.58,2.77,2.77,0,0,1-1.08.21,2.78,2.78,0,0,1-2-.79,2.94,2.94,0,0,1-.6-.87,2.77,2.77,0,0,1-.21-1.08V7.74H70.11v5.78a4.23,4.23,0,0,0,.34,1.7,4.35,4.35,0,0,0,1,1.39,4.49,4.49,0,0,0,6.27,0,4.49,4.49,0,0,0,.94-1.39,4.24,4.24,0,0,0,.35-1.7V7.74H77.32Z"/><path class="cls-1" d="M89.54,9.23A5.4,5.4,0,0,0,87.9,8.14a5.16,5.16,0,0,0-6.74,2.7,4.94,4.94,0,0,0,0,3.94,5.06,5.06,0,0,0,1.1,1.61,5.11,5.11,0,0,0,1.64,1.09,5.19,5.19,0,0,0,5.64-1.09,5.06,5.06,0,0,0,1.1-1.61,4.94,4.94,0,0,0,0-3.94A5.17,5.17,0,0,0,89.54,9.23Zm-.41,4.93a3.58,3.58,0,0,1-.75,1.1,3.63,3.63,0,0,1-1.11.73,3.52,3.52,0,0,1-1.37.27A3.45,3.45,0,0,1,84.53,16a3.51,3.51,0,0,1-1.11-.73,3.58,3.58,0,0,1-.75-1.1,3.4,3.4,0,0,1-.28-1.35,3.31,3.31,0,0,1,.28-1.34,3.36,3.36,0,0,1,.75-1.1,3.54,3.54,0,0,1,1.11-.74,3.45,3.45,0,0,1,1.37-.27,3.52,3.52,0,0,1,1.37.27,3.66,3.66,0,0,1,1.11.74,3.45,3.45,0,0,1,.75,3.79Z"/><path class="cls-1" d="M96.79,12.07c-1.92-.45-2.45-.8-2.45-1.64S95,9.18,96.05,9.18a4.54,4.54,0,0,1,2.66.94l.08.06L99.67,9l-.07-.06a5.59,5.59,0,0,0-3.52-1.15c-2,0-3.39,1.17-3.39,2.85S93.86,13,96,13.52c1.79.41,2.33.78,2.33,1.6s-.72,1.33-1.85,1.33a4.67,4.67,0,0,1-3.11-1.21l-.08-.06-1,1.16.07.06a6.24,6.24,0,0,0,4.07,1.48c2.15,0,3.55-1.15,3.55-2.93C100,13.43,99.1,12.62,96.79,12.07Z"/><path class="cls-2" d="M17,6.08V0H6.11V12.33L5.58,12,0,15v7.64H1.68V16L5.56,14l.55.3v8.38h4.76V14.94L7.79,13.25V1.68H15.3V7L12.21,8.62v14H17V8L21.4,5.63v17h1.68V2.83ZM7.79,21V15.17l1.4.77v5ZM15.3,8.88V21H13.89V9.63Z"/></svg>