<svg id="Capa_1" data-name="Capa 1" xmlns="http://www.w3.org/2000/svg" viewBox="0 0 35 35">
    <defs>
        <style>.cls-1{fill:#1d262d;}</style>
    </defs>
    <path class="cls-1"
        d="M17.5.1C8.38.1.26,5.65.26,10a3.5,3.5,0,0,0,3.5,3.5H9.1A3.72,3.72,0,0,0,12,12.09a3.73,3.73,0,0,0,2.9,1.42h1.85V27H13.84a.75.75,0,0,0,0,1.5h2.91v5.67a.75.75,0,0,0,1.5,0V28.48h2.91a.75.75,0,0,0,0-1.5H18.25V13.51H20.1A3.73,3.73,0,0,0,23,12.09a3.72,3.72,0,0,0,2.9,1.42h5.34a3.5,3.5,0,0,0,3.5-3.5C34.74,4.73,26.68.1,17.5.1ZM9.1,12H3.76a2,2,0,0,1-2-2C1.76,7.36,6.58,3.43,13,2.08c-1.2,1.59-1.76,4.17-1.76,7.93A2.13,2.13,0,0,1,9.1,12Zm11,0H14.9a2.13,2.13,0,0,1-2.15-2c0-7.09,2.05-8.24,4.15-8.38l.6,0,.52,0c2.13.12,4.23,1.21,4.23,8.39A2.13,2.13,0,0,1,20.1,12Zm11.14,0H25.9a2.13,2.13,0,0,1-2.15-2c0-3.83-.58-6.45-1.83-8,6.7,1.15,11.32,4.75,11.32,8A2,2,0,0,1,31.24,12Z" />
    <path class="cls-1"
        d="M12.47,29.73H7.14l-.81-4.87a.75.75,0,0,0-1.48.25l.88,5.25L4,33.81a.76.76,0,0,0,.34,1,.8.8,0,0,0,.33.08.76.76,0,0,0,.68-.42L7,31.23h4.57l1.62,3.25a.76.76,0,0,0,.68.42.8.8,0,0,0,.33-.08.76.76,0,0,0,.34-1Z" />
    <path class="cls-1"
        d="M29.27,30.37l.88-5.26a.75.75,0,0,0-1.48-.25l-.81,4.87H22.53l-2,4.08a.76.76,0,0,0,.34,1,.8.8,0,0,0,.33.08.76.76,0,0,0,.68-.42l1.62-3.25H28l1.62,3.25a.76.76,0,0,0,.68.42.8.8,0,0,0,.33-.08.76.76,0,0,0,.34-1Z" />
</svg>