<svg id="Capa_1" data-name="Capa 1" xmlns="http://www.w3.org/2000/svg" viewBox="0 0 35 35"><defs><style>.cls-1{fill:#1d262d;}</style></defs><path class="cls-1" d="M34.63,15.61,20.25,1.24a4.17,4.17,0,0,0-5.62.22L.48,15.61a.75.75,0,0,0,0,1.06.73.73,0,0,0,.53.22.74.74,0,0,0,.53-.22L3.23,15V32.92l0,.2a1.88,1.88,0,0,0,1.86,1.63H12.7l.21,0a1.88,1.88,0,0,0,1.62-1.86v-9.1a.38.38,0,0,1,.38-.33h5.33a.4.4,0,0,1,.33.38v9.31a1.89,1.89,0,0,0,1.87,1.62h7.59l.21,0a1.89,1.89,0,0,0,1.62-1.86V15l1.69,1.69a.75.75,0,0,0,1.06-1.06ZM30.38,32.87a.37.37,0,0,1-.28.37H22.46a.37.37,0,0,1-.37-.28V23.82A1.9,1.9,0,0,0,20.4,22H14.92a1.9,1.9,0,0,0-1.87,1.67l0,9.26a.38.38,0,0,1-.27.37H5.11A.37.37,0,0,1,4.74,33V13.48l11-11a2.65,2.65,0,0,1,3.54-.18L30.38,13.48Z"/></svg>