<svg id="Capa_1" data-name="Capa 1" xmlns="http://www.w3.org/2000/svg" viewBox="0 0 35 35">
    <defs>
        <style>.cls-1{fill:#1d262d;}</style>
    </defs>
    <path class="cls-1"
        d="M34.2,7.64a.43.43,0,0,0,0-.07.86.86,0,0,0-.1-.16L34,7.35a.57.57,0,0,0-.18-.12l0,0h0L17.78.8a.77.77,0,0,0-.56,0l-16,6.4h0a.05.05,0,0,0,0,0A.57.57,0,0,0,1,7.35l-.06.06a.86.86,0,0,0-.1.16.43.43,0,0,0,0,.07.75.75,0,0,0-.05.26V27.1a.76.76,0,0,0,.47.7l16,6.39.15.05h.28l.15-.05,16-6.39a.76.76,0,0,0,.47-.7V7.9A.75.75,0,0,0,34.2,7.64ZM17.5,2.31l14,5.59-6,2.39-14-5.59Zm-8,3.2,14,5.59-6,2.39L3.52,7.9ZM2.25,26.59V9l14.5,5.8V32.39Zm16,5.8V14.81l6.5-2.6v4.15a.75.75,0,0,0,1.5,0V11.61L32.75,9V26.59Z" />
</svg>