<svg id="Capa_1" data-name="Capa 1" xmlns="http://www.w3.org/2000/svg" viewBox="0 0 35 35">
    <defs>
        <style>.cls-1{fill:#1d262d;}</style>
    </defs>
    <path class="cls-1"
        d="M28,4.46a15.24,15.24,0,0,0-21,0A14.1,14.1,0,0,0,7,24.87L17.5,35,28,24.88A14.11,14.11,0,0,0,28,4.46ZM27,23.8,17.5,33,8,23.79A12.59,12.59,0,0,1,8,5.55a13.7,13.7,0,0,1,19,0A12.6,12.6,0,0,1,27,23.8Z" />
    <path class="cls-1"
        d="M17.51,7.58a6.33,6.33,0,0,0-6.42,6.26A6.33,6.33,0,0,0,13,18.29a6.26,6.26,0,0,0,4.39,1.79h.09a6.33,6.33,0,0,0,6.42-6.24v0A6.33,6.33,0,0,0,17.51,7.58ZM21,17.22a4.77,4.77,0,0,1-3.46,1.36,4.7,4.7,0,0,1-3.44-1.36,4.83,4.83,0,0,1-1.46-3.38,4.84,4.84,0,0,1,4.85-4.76h.14a4.84,4.84,0,0,1,4.83,4.75A4.81,4.81,0,0,1,21,17.22Z" />
</svg>