<?xml version="1.0" encoding="UTF-8"?>
<svg xmlns="http://www.w3.org/2000/svg" id="Capa_1" data-name="Capa 1" viewBox="0 0 152.5 34.51">
  <defs>
    <style>.cls-1{fill:#242f40;}.cls-2{fill:#ff6b3e;}</style>
  </defs>
  <path class="cls-1" d="M55.43,20.37a5.28,5.28,0,0,0,.88-3,5.43,5.43,0,0,0-.44-2.17,5.69,5.69,0,0,0-1.21-1.77,5.78,5.78,0,0,0-1.79-1.19,5.65,5.65,0,0,0-2.21-.43H44.4V27.27h2.51V22.93l3.76-.06,3,4.4H56.6l-3.32-5A5.62,5.62,0,0,0,55.43,20.37Zm-3.54-.15a3,3,0,0,1-1.23.25H46.91v-6.2h3.75a3.14,3.14,0,0,1,1.23.25,3.48,3.48,0,0,1,1,.66,3.55,3.55,0,0,1,.67,1,3,3,0,0,1,.25,1.21,2.91,2.91,0,0,1-.25,1.21,3.1,3.1,0,0,1-1.67,1.64Z"></path>
  <polygon class="cls-1" points="59.77 27.27 71.07 27.27 71.07 24.8 62.28 24.8 62.28 22.39 68.88 22.39 68.88 19.93 62.28 19.93 62.28 14.27 71.07 14.27 71.07 11.81 59.77 11.81 59.77 27.27"></polygon>
  <polygon class="cls-1" points="85.33 21.83 74.71 11.85 74.56 11.81 74.34 11.81 74.34 27.27 76.84 27.27 76.84 17.24 87.55 27.27 87.84 27.27 87.84 11.81 85.33 11.81 85.33 21.83"></polygon>
  <polygon class="cls-1" points="90.73 14.27 96.23 14.27 96.23 27.27 98.73 27.27 98.73 14.27 104.23 14.27 104.23 11.81 90.73 11.81 90.73 14.27"></polygon>
  <path class="cls-1" d="M117.91,20.62a4,4,0,0,1-.34,1.64,4.19,4.19,0,0,1-2.26,2.22,4.31,4.31,0,0,1-4.66-.89,4.22,4.22,0,0,1-.9-1.33,4.07,4.07,0,0,1-.33-1.64V11.81h-2.5v8.81a6.29,6.29,0,0,0,.53,2.59,6.61,6.61,0,0,0,1.43,2.12A6.86,6.86,0,0,0,111,26.74a6.73,6.73,0,0,0,8.85-3.53,6.49,6.49,0,0,0,.53-2.59V11.81h-2.5Z"></path>
  <path class="cls-1" d="M136.55,14.07a8.06,8.06,0,0,0-2.5-1.65,7.93,7.93,0,0,0-6.1,0,8.06,8.06,0,0,0-2.5,1.65,7.79,7.79,0,0,0-1.68,2.46,7.59,7.59,0,0,0,0,6A7.68,7.68,0,0,0,125.45,25a7.92,7.92,0,0,0,2.5,1.66,7.93,7.93,0,0,0,6.1,0,7.8,7.8,0,0,0,4.18-4.12,7.59,7.59,0,0,0,0-6A8,8,0,0,0,136.55,14.07Zm-.62,7.52a5.41,5.41,0,0,1-1.15,1.67,5.21,5.21,0,0,1-1.7,1.13,5.32,5.32,0,0,1-2.08.41,5.34,5.34,0,0,1-3.79-1.54,5.27,5.27,0,0,1-1.14-1.67,5.24,5.24,0,0,1,0-4.11,5.38,5.38,0,0,1,1.14-1.67,5.8,5.8,0,0,1,1.7-1.13,5.41,5.41,0,0,1,2.09-.41,5.32,5.32,0,0,1,2.08.41,5.55,5.55,0,0,1,1.7,1.13,5.41,5.41,0,0,1,1.15,1.67,5.36,5.36,0,0,1,0,4.11Z"></path>
  <path class="cls-1" d="M147.61,18.41c-2.93-.69-3.73-1.23-3.73-2.5S144.93,14,146.49,14a7,7,0,0,1,4,1.44l.13.09L152,13.64l-.12-.08a8.44,8.44,0,0,0-5.36-1.75c-3.05,0-5.18,1.78-5.18,4.34,0,2.74,1.78,3.69,5.07,4.47,2.72.62,3.56,1.19,3.56,2.44s-1.11,2-2.83,2a7.15,7.15,0,0,1-4.75-1.84l-.12-.1-1.51,1.78.11.09a9.51,9.51,0,0,0,6.2,2.26c3.29,0,5.42-1.76,5.42-4.47C152.5,20.48,151.13,19.25,147.61,18.41Z"></path>
  <path class="cls-2" d="M25.89,9.27V0H9.31V18.8l-.8-.44L0,22.86V34.51H2.56V24.4l5.93-3.13.82.45V34.51h7.27V22.79l-4.7-2.58V2.56H23.33v8.07l-4.71,2.51V34.51h7.27V12.17l6.75-3.59V34.51H35.2V4.31Zm-14,22.67V23.13L14,24.31v7.63Zm11.45-18.4v18.4H21.19V14.68Z"></path>
</svg>
