<svg xmlns="http://www.w3.org/2000/svg" xmlns:xlink="http://www.w3.org/1999/xlink" version="1.1" width="1000" height="1000" viewBox="0 0 1000 1000" xml:space="preserve">
<desc>Created with Fabric.js 3.5.0</desc>
<defs>
</defs>
<rect x="0" y="0" width="100%" height="100%" fill="#ffffff"/>
<g transform="matrix(15.949 0 0 15.949 520.1762 513.9561)" id="391402">
<path style="stroke: none; stroke-width: 1; stroke-dasharray: none; stroke-linecap: butt; stroke-dashoffset: 0; stroke-linejoin: miter; stroke-miterlimit: 4; is-custom-font: none; font-file-url: none; fill: rgb(255,255,255); fill-rule: nonzero; opacity: 1;" transform=" translate(-29.765, -28.875)" d="M 19.76 29.37 L 19.73 8.39 Q 19.73 7.75 20.36 7.75 L 39.25 7.75 Q 40 7.75 40 8.5 L 40 18.26 A 0.48 0.48 0 0 0 40.7 18.68 L 50.68 13.33 Q 51.24 13.03 51.24 13.66 L 51.28 49.24 Q 51.28 50 50.51 50 L 48.63 50 Q 48 50 48 49.38 L 48 19.03 Q 48 18.46 47.5 18.73 L 40.54 22.41 Q 40 22.7 40 23.31 L 40 49.38 Q 40 50 39.37 50 L 31.75 50 Q 31 50 31 49.25 L 31 24.45 Q 31 23.81 31.56 23.51 L 36.29 20.96 Q 36.75 20.72 36.75 20.2 L 36.75 11.75 Q 36.75 11 36 11 L 23.5 11 Q 22.75 11 22.75 11.75 L 22.75 31.78 Q 22.75 32.43 23.32 32.74 L 28.19 35.35 Q 28.75 35.64 28.75 36.27 L 28.75 49.34 Q 28.75 49.99 28.1 49.99 L 20.2 50 Q 19.65 50 19.65 49.45 L 19.75 34.65 A 0.81 0.81 0 0 0 18.56 33.93 L 11.98 37.4 Q 11.5 37.65 11.5 38.2 L 11.5 49.38 Q 11.5 50 10.87 50 L 9 50 Q 8.25 50 8.25 49.25 L 8.25 36.34 Q 8.25 35.66 8.85 35.35 L 19.46 29.86 Q 19.76 29.71 19.76 29.37 Z M 36.71 46.69 L 36.79 25.11 A 0.2 0.2 0 0 0 36.59 24.91 L 36.11 24.91 A 1.84 1.73 0.2 0 0 34.26 26.64 L 34.2 45.16 A 1.84 1.73 0.2 0 0 36.03 46.89 L 36.51 46.89 A 0.2 0.2 0 0 0 36.71 46.69 Z M 24.78 46.75 A 0.55 0.55 0 0 0 25.33 46.19 L 25.21 37.69 A 0.55 0.55 0 0 0 24.91 37.21 L 23.55 36.52 A 0.55 0.55 0 0 0 22.75 37.01 L 22.75 46.2 A 0.55 0.55 0 0 0 23.3 46.75 L 24.78 46.75 Z" stroke-linecap="round"/>
</g>
</svg>